<svg xmlns="http://www.w3.org/2000/svg" viewBox="0 0 24 24" fill="currentColor" aria-hidden="true" focusable="false">
  <path d="M12 2a2 2 0 0 1 2 2c0 .35-.09.68-.25.97A4 4 0 0 1 15.84 6a3 3 0 0 1 3 3c0 .48-.12.93-.32 1.32.29-.16.62-.25.97-.25a2 2 0 1 1 0 4c-.35 0-.68-.09-.97-.25.2.39.32.84.32 1.32a3 3 0 0 1-3 3c-.48 0-.93-.12-1.32-.32.16.29.25.62.25.97a2 2 0 1 1-4 0c0-.35.09-.68.25-.97A4 4 0 0 1 8.16 18a3 3 0 0 1-3-3c0-.48.12-.93.32-1.32a1.97 1.97 0 0 1-.97.25 2 2 0 1 1 0-4c.35 0 .68.09.97.25A2.99 2.99 0 0 1 5.16 9a3 3 0 0 1 3-3c.48 0 .93.12 1.32.32A1.98 1.98 0 0 1 10 4a2 2 0 0 1 2-2Zm0 7a3 3 0 1 0 0 6 3 3 0 0 0 0-6Z"/>
</svg>
