<?xml version="1.0" encoding="UTF-8"?>
<svg xmlns="http://www.w3.org/2000/svg" id="Capa_16" data-name="Capa 16" viewBox="0 0 24 24">
  <defs>
    <style>
      .cls-1 {
        fill-rule: evenodd;
      }
    </style>
  </defs>
  <path class="cls-1" d="m12,0C5.373,0,0,5.373,0,12s5.373,12,12,12,12-5.373,12-12S18.627,0,12,0Zm8,12c0,4.411-3.589,8-8,8s-8-3.589-8-8S7.589,4,12,4c1.782,0,3.468.573,4.876,1.658l-1.859,2.415c-.871-.671-1.914-1.025-3.017-1.025-2.731,0-4.952,2.222-4.952,4.952s2.222,4.952,4.952,4.952c2.199,0,4.068-1.441,4.713-3.429h-4.713v-3.048h8v1.524Z"/>
</svg>
