<?xml version="1.0" encoding="UTF-8"?>
<svg xmlns="http://www.w3.org/2000/svg" id="Layer_1" data-name="Layer 1" viewBox="0 0 24 24">
  <path d="M21.868,16.159c-.091-.023-1.365-.339-3.532-.608-.077-1.061-.127-2.251-.127-3.551,0-1.36,.056-2.603,.14-3.704,1.756,.234,2.767,.483,2.786,.487,.122,.031,1.409,.31,1.82-1.089,.216-.737-.284-1.617-1.086-1.82-.086-.022-1.232-.306-3.192-.564,.218-1.495,.431-2.346,.435-2.363,.204-.802-.28-1.619-1.082-1.824-.801-.205-1.618,.277-1.824,1.08-.021,.08-.274,1.084-.52,2.811-1.108-.076-2.342-.126-3.685-.126-1.329,0-2.549,.048-3.645,.122,.201-1.307,.386-2.046,.39-2.062,.204-.802-.28-1.619-1.082-1.824-.803-.205-1.618,.277-1.824,1.08-.022,.084-.304,1.201-.562,3.112-1.938,.257-3.063,.539-3.148,.561-.802,.205-1.286,1.021-1.082,1.823,.204,.802,1.021,1.289,1.822,1.084,.016-.004,.765-.19,2.096-.391-.075,1.087-.123,2.296-.123,3.609,0,1.328,.049,2.547,.125,3.641-1.748,.245-2.758,.498-2.838,.518-.802,.205-1.286,1.021-1.082,1.823,.204,.802,1.021,1.291,1.822,1.084,.017-.004,.879-.218,2.398-.435,.261,1.952,.55,3.086,.572,3.17,.175,.676,.863,1.265,1.827,1.075,.812-.16,1.284-1.025,1.078-1.827-.005-.018-.254-1.008-.49-2.74,1.111-.083,2.367-.138,3.746-.138,1.312,0,2.517,.051,3.591,.128,.271,2.155,.592,3.413,.615,3.502,.175,.676,.861,1.257,1.827,1.075,.814-.153,1.284-1.025,1.078-1.827-.004-.017-.224-.889-.446-2.426,1.56,.22,2.452,.44,2.47,.444,.122,.031,1.422,.297,1.82-1.089,.229-.795-.284-1.617-1.086-1.82Zm-9.868-.987c-1.493,0-2.85,.06-4.047,.151-.068-1.002-.111-2.115-.111-3.322,0-1.464,.065-2.794,.16-3.955,1.171-.094,2.514-.158,3.998-.158,1.219,0,2.345,.044,3.36,.112-.091,1.186-.152,2.528-.152,4.001,0,1.181,.039,2.275,.1,3.272-1.009-.062-2.116-.101-3.309-.101Z"/>
</svg>
