<svg xmlns="http://www.w3.org/2000/svg" viewBox="0 0 24 24" fill="currentColor" aria-hidden="true" focusable="false">
  <path d="M12.208 8.328c-.916-.077-1.788.326-2.67 1.209-1.634 1.635-1.634 3.292 0 4.925.481.482 1.239 1.142 2.254 1.21.966.064 1.854-.392 2.67-1.21 1.634-1.634 1.633-3.292 0-4.925-.481-.482-1.239-1.132-2.254-1.21Zm.84 4.721s0 0 0 0c-.302.302-.767.655-1.102.629-.262-.02-.596-.232-.993-.629-.787-.787-.897-1.2 0-2.098.291-.291.706-.63 1.061-.63.014 0 .028 0 .041.001.262.02.596.232.993.629.787.787.897 1.2 0 2.098Z"/>
  <path d="M22.994 11.954c.006-1.206-.452-2.662-2.571-3.05-.11-.21-.231-.421-.364-.633 1.068-1.479.986-2.851-.248-4.085-1.235-1.236-2.607-1.317-4.087-.245-.209-.132-.418-.252-.627-.36-.382-2.112-1.824-2.58-3.027-2.58-1.69 0-2.771.891-3.086 2.624-.208.109-.418.23-.629.362-1.473-1.064-2.846-.973-4.093.272-1.243 1.244-1.333 2.618-.272 4.091-.133.212-.255.423-.366.633-1.729.316-2.609 1.345-2.618 3.063-.006 1.206.452 2.662 2.571 3.05.11.21.231.421.365.633-1.069 1.479-.987 2.851.247 4.085 1.235 1.236 2.608 1.317 4.087.245.209.132.418.252.627.36.382 2.112 1.824 2.58 3.027 2.58 1.721 0 2.771-.891 3.086-2.624.208-.109.418-.23.629-.362 1.471 1.061 2.84.968 4.092-.272s1.334-2.618.273-4.092c.133-.212.255-.423.366-.632 1.729-.316 2.609-1.345 2.618-3.063Zm-3.369 1.147c-.364.031-.682.259-.829.593-.201.456-.483.934-.839 1.419-.282.385-.252.917.071 1.269 1.073 1.166.713 1.527.295 1.945-.435.436-.78.78-1.943-.296-.352-.324-.883-.354-1.27-.072-.483.354-.959.635-1.416.834-.335.147-.563.465-.595.831-.118 1.37-.6 1.373-1.157 1.375-.565 0-1.018.006-1.122-1.326-.029-.371-.261-.695-.603-.841-.454-.195-.927-.472-1.405-.825-.177-.131-.386-.195-.594-.195-.244 0-.487.089-.678.265-1.179 1.087-1.532.732-1.939.324-.409-.409-.762-.763.322-1.94.325-.353.354-.886.068-1.272-.356-.481-.635-.955-.83-1.407-.146-.341-.47-.573-.839-.602-1.325-.106-1.323-.555-1.32-1.123.003-.581.005-1.04 1.369-1.158.364-.031.682-.259.829-.593.202-.457.484-.935.839-1.42.282-.385.252-.917-.071-1.269-1.073-1.165-.712-1.526-.295-1.944.435-.435.78-.779 1.943.295.352.325.883.354 1.269.072.484-.354.96-.634 1.417-.834.335-.147.563-.465.595-.831.118-1.37.6-1.373 1.157-1.375.573.004 1.018-.006 1.122 1.326.029.371.261.695.603.841.454.195.927.472 1.405.825.385.284.919.255 1.271-.069 1.179-1.087 1.531-.732 1.939-.324.409.409.763.763-.322 1.94-.325.353-.354.887-.069 1.272.356.481.635.955.83 1.407.146.341.47.573.839.602 1.325.106 1.323.555 1.32 1.123-.003.581-.005 1.04-1.369 1.158Z"/>
</svg>
