<svg xmlns="http://www.w3.org/2000/svg" viewBox="0 0 24 24" aria-hidden="true" focusable="false">
  <path fill="currentColor" d="M18 2a4 4 0 0 0-3.995 3.8L9.4 8.34a4 4 0 1 0 0 7.32l4.605 2.54A4 4 0 1 0 16 16a3.96 3.96 0 0 0-.41 0l-4.605-2.54a4 4 0 0 0 0-2.92l4.605-2.54A4 4 0 1 0 18 2Zm0 2a2 2 0 1 1-1.732 3h-.001a2 2 0 0 1-.267-.14l-.002-.001a2 2 0 0 1-.182-.133l-.002-.001A2 2 0 0 1 16 6a2 2 0 0 1 2-2Zm-10 7a2 2 0 1 1 0 4 2 2 0 0 1 0-4Zm10 7a2 2 0 1 1-1.732 3h-.001a2 2 0 0 1-.267-.14l-.002-.001a2 2 0 0 1-.182-.133l-.002-.001A2 2 0 0 1 16 18a2 2 0 0 1 2-2Z"/>
</svg>
